<svg width="387" height="228" viewBox="0 0 387 228" fill="none" xmlns="http://www.w3.org/2000/svg">
<path d="M253.183 119.883H245.902L244.631 124H238.955L247.038 101.961H252.033L260.176 124H254.47L253.183 119.883ZM247.174 115.781H251.912L249.535 108.137L247.174 115.781ZM267.109 119.913H276.357V124H261.796V101.961H267.109V119.913ZM278.598 124V101.961H285.697C287.644 101.961 289.395 102.405 290.949 103.293C292.503 104.171 293.714 105.417 294.582 107.032C295.46 108.636 295.904 110.438 295.914 112.436V113.45C295.914 115.468 295.485 117.279 294.627 118.884C293.78 120.478 292.579 121.729 291.025 122.638C289.481 123.536 287.755 123.99 285.848 124H278.598ZM283.911 106.063V119.913H285.757C287.281 119.913 288.452 119.373 289.269 118.293C290.086 117.204 290.495 115.589 290.495 113.45V112.496C290.495 110.367 290.086 108.762 289.269 107.683C288.452 106.603 287.261 106.063 285.697 106.063H283.911ZM312.307 114.661H303.952V119.913H313.821V124H298.639V101.961H313.851V106.063H303.952V110.71H312.307V114.661ZM324.174 116.22H321.298V124H315.985V101.961H324.659C327.272 101.961 329.316 102.541 330.789 103.702C332.262 104.862 332.999 106.502 332.999 108.621C332.999 110.155 332.686 111.426 332.061 112.436C331.445 113.445 330.476 114.262 329.154 114.888L333.756 123.773V124H328.064L324.174 116.22ZM321.298 112.118H324.659C325.668 112.118 326.425 111.855 326.929 111.331C327.444 110.796 327.701 110.054 327.701 109.105C327.701 108.157 327.444 107.415 326.929 106.88C326.415 106.335 325.658 106.063 324.659 106.063H321.298V112.118ZM354.872 113.435C354.872 115.584 354.473 117.486 353.676 119.141C352.879 120.796 351.743 122.073 350.27 122.971C348.807 123.859 347.137 124.303 345.26 124.303C343.383 124.303 341.718 123.874 340.265 123.016C338.812 122.148 337.676 120.912 336.859 119.308C336.052 117.703 335.628 115.861 335.587 113.783V112.542C335.587 110.382 335.981 108.48 336.768 106.835C337.565 105.18 338.701 103.903 340.174 103.005C341.657 102.107 343.342 101.658 345.229 101.658C347.096 101.658 348.761 102.102 350.225 102.99C351.688 103.878 352.823 105.145 353.63 106.79C354.448 108.424 354.861 110.301 354.872 112.42V113.435ZM349.468 112.511C349.468 110.321 349.099 108.661 348.363 107.531C347.636 106.391 346.592 105.821 345.229 105.821C342.565 105.821 341.158 107.819 341.006 111.815L340.991 113.435C340.991 115.594 341.349 117.254 342.066 118.415C342.782 119.575 343.847 120.155 345.26 120.155C346.602 120.155 347.636 119.585 348.363 118.445C349.089 117.305 349.458 115.665 349.468 113.525V112.511ZM376.018 124H370.735L362.924 110.286V124H357.611V101.961H362.924L370.72 115.675V101.961H376.018V124Z" fill="#CACACA"/>
<path d="M141 28L205.086 113.5H76.9141L141 28Z" fill="#C4C4C4"/>
<path d="M207 114L271.086 28.5H142.914L207 114Z" fill="#C4C4C4"/>
<path d="M74 114L138.086 199.5H9.91412L74 114Z" fill="#C4C4C4"/>
<path d="M140 200L204.086 114.5H75.9141L140 200Z" fill="#C4C4C4"/>
<path d="M207 113L271.086 198.5H142.914L207 113Z" fill="#C4C4C4"/>
<path d="M253.183 119.883H245.902L244.631 124H238.955L247.038 101.961H252.033L260.176 124H254.47L253.183 119.883ZM247.174 115.781H251.912L249.535 108.137L247.174 115.781ZM267.109 119.913H276.357V124H261.796V101.961H267.109V119.913ZM278.598 124V101.961H285.697C287.644 101.961 289.395 102.405 290.949 103.293C292.503 104.171 293.714 105.417 294.582 107.032C295.46 108.636 295.904 110.438 295.914 112.436V113.45C295.914 115.468 295.485 117.279 294.627 118.884C293.78 120.478 292.579 121.729 291.025 122.638C289.481 123.536 287.755 123.99 285.848 124H278.598ZM283.911 106.063V119.913H285.757C287.281 119.913 288.452 119.373 289.269 118.293C290.086 117.204 290.495 115.589 290.495 113.45V112.496C290.495 110.367 290.086 108.762 289.269 107.683C288.452 106.603 287.261 106.063 285.697 106.063H283.911ZM312.307 114.661H303.952V119.913H313.821V124H298.639V101.961H313.851V106.063H303.952V110.71H312.307V114.661ZM324.174 116.22H321.298V124H315.985V101.961H324.659C327.272 101.961 329.316 102.541 330.789 103.702C332.262 104.862 332.999 106.502 332.999 108.621C332.999 110.155 332.686 111.426 332.061 112.436C331.445 113.445 330.476 114.262 329.154 114.888L333.756 123.773V124H328.064L324.174 116.22ZM321.298 112.118H324.659C325.668 112.118 326.425 111.855 326.929 111.331C327.444 110.796 327.701 110.054 327.701 109.105C327.701 108.157 327.444 107.415 326.929 106.88C326.415 106.335 325.658 106.063 324.659 106.063H321.298V112.118ZM354.872 113.435C354.872 115.584 354.473 117.486 353.676 119.141C352.879 120.796 351.743 122.073 350.27 122.971C348.807 123.859 347.137 124.303 345.26 124.303C343.383 124.303 341.718 123.874 340.265 123.016C338.812 122.148 337.676 120.912 336.859 119.308C336.052 117.703 335.628 115.861 335.587 113.783V112.542C335.587 110.382 335.981 108.48 336.768 106.835C337.565 105.18 338.701 103.903 340.174 103.005C341.657 102.107 343.342 101.658 345.229 101.658C347.096 101.658 348.761 102.102 350.225 102.99C351.688 103.878 352.823 105.145 353.63 106.79C354.448 108.424 354.861 110.301 354.872 112.42V113.435ZM349.468 112.511C349.468 110.321 349.099 108.661 348.363 107.531C347.636 106.391 346.592 105.821 345.229 105.821C342.565 105.821 341.158 107.819 341.006 111.815L340.991 113.435C340.991 115.594 341.349 117.254 342.066 118.415C342.782 119.575 343.847 120.155 345.26 120.155C346.602 120.155 347.636 119.585 348.363 118.445C349.089 117.305 349.458 115.665 349.468 113.525V112.511ZM376.018 124H370.735L362.924 110.286V124H357.611V101.961H362.924L370.72 115.675V101.961H376.018V124Z" fill="#CACACA"/>
<path d="M325.978 156.913H335.227V161H320.665V138.961H325.978V156.913ZM350.288 156.883H343.007L341.735 161H336.059L344.142 138.961H349.137L357.281 161H351.574L350.288 156.883ZM344.278 152.781H349.016L346.64 145.137L344.278 152.781ZM358.9 161V138.961H366.817C369.653 138.961 371.807 139.481 373.28 140.52C374.764 141.559 375.505 143.068 375.505 145.046C375.505 146.186 375.243 147.16 374.718 147.967C374.194 148.775 373.422 149.37 372.402 149.753C373.553 150.056 374.436 150.621 375.051 151.449C375.667 152.276 375.975 153.285 375.975 154.476C375.975 156.636 375.288 158.26 373.916 159.35C372.554 160.43 370.53 160.98 367.846 161H358.9ZM364.213 151.63V156.913H367.695C368.653 156.913 369.39 156.696 369.905 156.262C370.419 155.818 370.677 155.198 370.677 154.4C370.677 152.564 369.764 151.64 367.937 151.63H364.213ZM364.213 148.149H366.983C368.144 148.139 368.971 147.927 369.466 147.513C369.96 147.099 370.208 146.489 370.208 145.682C370.208 144.753 369.94 144.087 369.405 143.684C368.87 143.27 368.008 143.063 366.817 143.063H364.213V148.149ZM381.833 156.05C382.64 156.05 383.311 156.292 383.846 156.777C384.381 157.251 384.648 157.862 384.648 158.608C384.648 159.355 384.381 159.971 383.846 160.455C383.311 160.929 382.64 161.167 381.833 161.167C381.015 161.167 380.339 160.924 379.804 160.44C379.279 159.956 379.017 159.345 379.017 158.608C379.017 157.872 379.279 157.261 379.804 156.777C380.339 156.292 381.015 156.05 381.833 156.05Z" fill="#CACACA"/>
<line x1="376" y1="131.5" x2="230" y2="131.5" stroke="#C4C4C4" stroke-width="5"/>
</svg>
